#!OML:ASF H:\Terrain\Patient Classification 1\Takeo\Monday\TakeoMonday.ASF
:FULLY-SPECIFIED
:DEGREES
634
root 9.42417 17.3848 -3.24584 8.71346 10.7908 -3.61552
lowerback 15.2615 2.26129 2.46687
upperback 9.10818 3.31249 -0.139833
thorax 1.2564 1.78067 -1.98363
lowerneck -13.4278 7.12151 2.09339
upperneck -10.3365 9.10528 -7.04835
head -0.601115 4.58161 -2.24428
rclavicle 2.59538e-014 4.77083e-015
rhumerus 27.3177 51.8942 -90.8279
rradius 44.3909
rwrist -35.6033
rhand -48.302 15.1922
rfingers 7.12502
rthumb -20.9586 -13.6955
lclavicle 2.59538e-014 4.77083e-015
lhumerus 37.2901 -14.3493 73.0625
lradius 47.4631
lwrist 49.9921
lhand -40.5883 39.9886
lfingers 7.12502
lthumb -13.5349 69.5288
rfemur -7.98209 -16.4123 31.0767
rtibia 22.4682
rfoot -26.0225 -26.1809
rtoes -1.49859
lfemur -37.5993 -6.41829 -16.0817
ltibia 26.4753
lfoot 4.43726 -2.83757
ltoes -1.74443
635
root 9.42916 17.387 -3.22373 9.50692 10.6818 -3.20304
lowerback 15.4901 2.28323 1.84739
upperback 9.21346 3.26506 -0.408904
thorax 1.22542 1.74031 -1.91961
lowerneck -13.3429 7.07917 2.01565
upperneck -10.5195 9.06271 -6.88629
head -0.688379 4.57014 -2.18933
rclavicle -4.95968e-014 9.19379e-015
rhumerus 26.8755 51.8459 -91.2953
rradius 44.2707
rwrist -36.2328
rhand -47.9093 14.4271
rfingers 7.12502
rthumb -20.5813 -14.5019
lclavicle -4.95968e-014 9.19379e-015
lhumerus 37.0568 -14.2338 73.5406
lradius 46.2207
lwrist 49.8679
lhand -43.1405 41.7049
lfingers 7.12502
lthumb -15.9937 71.0646
rfemur -8.61132 -16.4158 30.8204
rtibia 22.2793
rfoot -25.9603 -26.039
rtoes -1.32265
lfemur -38.0786 -6.13837 -16.5381
ltibia 26.135
lfoot 4.47944 -3.10297
ltoes -2.01014
636
root 9.43027 17.3965 -3.20129 10.2422 10.6703 -3.18907
lowerback 15.6341 2.21568 1.48543
upperback 9.28822 3.13113 -0.533223
thorax 1.21005 1.66246 -1.83323
lowerneck -12.7664 7.20809 2.30046
upperneck -11.1213 9.17712 -7.17751
head -0.941141 4.64144 -2.36678
rclavicle -4.83047e-014 4.82053e-014
rhumerus 26.5954 52.2704 -91.4631
rradius 44.0577
rwrist -36.5102
rhand -46.9872 13.7602
rfingers 7.12502
rthumb -19.695 -15.2621
lclavicle -4.83047e-014 4.82053e-014
lhumerus 36.7774 -13.8794 74.0743
lradius 44.9147
lwrist 49.502
lhand -42.1648 42.1153
lfingers 7.12502
lthumb -15.0539 71.548
rfemur -9.20405 -16.2783 31.024
rtibia 21.9731
rfoot -26.0356 -25.9818
rtoes -1.27314
lfemur -38.7392 -6.04204 -16.4517
ltibia 25.8849
lfoot 4.54642 -3.17754
ltoes -1.86218
637
root 9.43007 17.409 -3.17717 10.7917 10.7504 -3.71345
lowerback 15.8889 2.12982 1.60486
upperback 9.36379 3.03609 -0.480894
thorax 1.15758 1.61783 -1.84173
lowerneck -12.2718 7.34026 2.48674
upperneck -11.6648 9.3133 -7.41155
head -1.16991 4.72517 -2.50657
rclavicle 2.29596e-014 -1.17283e-014
rhumerus 26.359 52.7939 -91.4956
rradius 43.8975
rwrist -37.4282
rhand -47.2669 13.5317
rfingers 7.12502
rthumb -19.9638 -15.4628
lclavicle 2.29596e-014 -1.17283e-014
lhumerus 36.5091 -13.2798 74.9063
lradius 43.487
lwrist 48.6393
lhand -38.8412 40.4317
lfingers 7.12502
lthumb -11.8506 70.0764
rfemur -9.6884 -16.2883 31.8091
rtibia 21.6646
rfoot -25.6748 -26.1244
rtoes -1.81162
lfemur -39.3869 -6.00049 -15.7275
ltibia 25.7073
lfoot 4.72786 -3.13491
ltoes -1.13193
638
root 9.43423 17.4221 -3.15091 11.3636 10.6499 -3.80145
lowerback 16.1265 2.16191 1.37695
upperback 9.55968 3.04927 -0.544226
thorax 1.23545 1.61922 -1.78722
lowerneck -12.245 7.3344 2.28225
upperneck -11.9722 9.33024 -7.28456
head -1.29082 4.75059 -2.44214
rclavicle 1.02374e-014 -1.39149e-014
rhumerus 26.4512 53.2826 -91.1408
rradius 43.6922
rwrist -38.6475
rhand -47.5774 14.3893
rfingers 7.12502
rthumb -20.2623 -14.5738
lclavicle 1.02374e-014 -1.39149e-014
lhumerus 36.5525 -12.6678 75.8769
lradius 41.8638
lwrist 47.925
lhand -37.0677 38.9235
lfingers 7.12502
lthumb -10.1399 68.6592
rfemur -10.0464 -16.4915 32.0393
rtibia 21.211
rfoot -25.1417 -26.0314
rtoes -2.98815
lfemur -39.8449 -5.76631 -15.6314
ltibia 25.6172
lfoot 4.77311 -3.23183
ltoes -0.810917
639
root 9.44183 17.4312 -3.12779 12.0749 10.4932 -3.67283
lowerback 16.1578 2.21355 1.0242
upperback 9.82318 3.07012 -0.68504
thorax 1.49183 1.6233 -1.73371
lowerneck -12.3463 7.30786 1.92249
upperneck -12.2694 9.3438 -7.04921
head -1.40121 4.77854 -2.3118
rclavicle 2.98177e-015 -2.18663e-015
rhumerus 26.825 53.5918 -90.522
rradius 43.4704
rwrist -39.4706
rhand -47.5203 14.5286
rfingers 7.12502
rthumb -20.2074 -14.4403
lclavicle 2.98177e-015 -2.18663e-015
lhumerus 36.7306 -12.2222 76.6482
lradius 40.4656
lwrist 47.6761
lhand -36.4132 37.7006
lfingers 7.12502
lthumb -9.50846 67.4661
rfemur -10.5172 -16.5816 32.0225
rtibia 20.7288
rfoot -24.9626 -25.6859
rtoes -3.91297
lfemur -40.4484 -5.56137 -15.7902
ltibia 25.5865
lfoot 4.62726 -3.14548
ltoes -0.177814
